<svg version="1.1" xmlns="http://www.w3.org/2000/svg" xmlns:xlink="http://www.w3.org/1999/xlink" width="30.45091" height="36.55639" viewBox="0,0,30.45091,36.55639"><defs><radialGradient cx="232.86539" cy="176.32186" r="14.30739" gradientUnits="userSpaceOnUse" id="color-1"><stop offset="0" stop-color="#00ceff" stop-opacity="0"/><stop offset="1" stop-color="#00ceff"/></radialGradient><radialGradient cx="232.73026" cy="172.26781" r="14.34942" gradientUnits="userSpaceOnUse" id="color-2"><stop offset="0" stop-color="#00ceff" stop-opacity="0"/><stop offset="1" stop-color="#00ceff"/></radialGradient><radialGradient cx="232.86539" cy="176.32186" r="14.30739" gradientUnits="userSpaceOnUse" id="color-3"><stop offset="0" stop-color="#47daff"/><stop offset="1" stop-color="#00ceff"/></radialGradient><radialGradient cx="232.73026" cy="172.26781" r="14.34942" gradientUnits="userSpaceOnUse" id="color-4"><stop offset="0" stop-color="#47daff"/><stop offset="1" stop-color="#00ceff"/></radialGradient><radialGradient cx="250.83304" cy="198.05356" r="19.72826" gradientUnits="userSpaceOnUse" id="color-5"><stop offset="0" stop-color="#00a8d2"/><stop offset="1" stop-color="#00a8d2" stop-opacity="0"/></radialGradient><linearGradient x1="229.72823" y1="186.64433" x2="229.72823" y2="175.93005" gradientUnits="userSpaceOnUse" id="color-6"><stop offset="0" stop-color="#00bae9"/><stop offset="1" stop-color="#00bae9" stop-opacity="0"/></linearGradient><linearGradient x1="229.72823" y1="187.67484" x2="229.72823" y2="189.8735" gradientUnits="userSpaceOnUse" id="color-7"><stop offset="0" stop-color="#00bae9"/><stop offset="1" stop-color="#00bae9" stop-opacity="0"/></linearGradient><linearGradient x1="240.93358" y1="165.5221" x2="251.64787" y2="165.5221" gradientUnits="userSpaceOnUse" id="color-8"><stop offset="0" stop-color="#00bae9"/><stop offset="1" stop-color="#00bae9" stop-opacity="0"/></linearGradient><linearGradient x1="239.46037" y1="165.73043" x2="228.74608" y2="165.73043" gradientUnits="userSpaceOnUse" id="color-9"><stop offset="0" stop-color="#00bae9"/><stop offset="1" stop-color="#00bae9" stop-opacity="0"/></linearGradient></defs><g transform="translate(-225.1281,-161.7218)"><g data-paper-data="{&quot;isPaintingLayer&quot;:true}" fill-rule="nonzero" stroke-linejoin="miter" stroke-miterlimit="10" stroke-dasharray="" stroke-dashoffset="0" style="mix-blend-mode: normal"><path d="M233.6563,174.78277v12.95416l3.24257,3.24257l10.43662,-0.1087l6.90739,6.90739h-21.69664l-6.91814,-6.91814v-16.16252z" fill="url(#color-1)" stroke="#ffffff" stroke-width="1" stroke-linecap="round"/><path d="M254.3719,162.2218l-6.63078,6.63078h-10.36059l-3.93703,3.93703h-7.77044v-3.6262l6.9416,-6.9416z" fill="url(#color-2)" stroke="#ffffff" stroke-width="1" stroke-linecap="round"/><path d="M233.6563,174.78277v12.95416l3.24257,3.24257l10.43662,-0.1087l6.90739,6.90739h-21.69664l-6.91814,-6.91814v-16.16252z" fill="url(#color-3)" stroke="#000000" stroke-width="0" stroke-linecap="round"/><path d="M254.3719,162.2218l-6.63078,6.63078h-10.36059l-3.93703,3.93703h-7.77044v-3.6262l6.9416,-6.9416z" fill="url(#color-4)" stroke="#000000" stroke-width="0" stroke-linecap="round"/><path d="M232.35477,197.72461l-1.13437,-1.26893l2.38698,-8.60865l3.40039,3.15811l10.19252,-0.05643l6.93122,6.77912z" fill="url(#color-5)" stroke="none" stroke-width="0" stroke-linecap="butt"/><path d="M232.91573,175.93005v10.71428h-6.375v-10.71428z" data-paper-data="{&quot;index&quot;:null}" fill="url(#color-6)" stroke="none" stroke-width="0" stroke-linecap="butt"/><path d="M226.54073,189.8735v-2.19866h6.375v2.19866z" data-paper-data="{&quot;index&quot;:null}" fill="url(#color-7)" stroke="none" stroke-width="0" stroke-linecap="butt"/><path d="M246.90649,167.84753h-5.97291v-4.65086h10.71429z" data-paper-data="{&quot;index&quot;:null}" fill="url(#color-8)" stroke="none" stroke-width="0" stroke-linecap="butt"/><path d="M233.48746,163.405h5.97291v4.65086h-10.71429z" data-paper-data="{&quot;index&quot;:null}" fill="url(#color-9)" stroke="none" stroke-width="0" stroke-linecap="butt"/></g></g></svg>