<svg version="1.1" xmlns="http://www.w3.org/2000/svg" xmlns:xlink="http://www.w3.org/1999/xlink" width="406.09959" height="336.19584" viewBox="0,0,406.09959,336.19584"><g transform="translate(-36.9502,-11.90208)"><g data-paper-data="{&quot;isPaintingLayer&quot;:true}" fill-rule="nonzero" stroke-linecap="butt" stroke-linejoin="miter" stroke-miterlimit="10" stroke-dasharray="" stroke-dashoffset="0" style="mix-blend-mode: normal"><path d="M36.9502,348.09792v-336.19584h406.09959v336.19584z" fill="none" stroke="none" stroke-width="0"/><path d="M254.50008,339.49939v-47.17829h179v47.17829z" fill="none" stroke="#1b6790" stroke-width="2"/><path d="M260.34004,334.43115v-22.97712h32.25002v22.97712z" fill="#060a1f" stroke="#266061" stroke-width="1.5"/><text transform="translate(257.6187,305.54521) scale(0.2902,0.2902)" font-size="40" xml:space="preserve" fill="#fff4f4" fill-rule="nonzero" stroke="none" stroke-width="1" stroke-linecap="butt" stroke-linejoin="miter" stroke-miterlimit="10" stroke-dasharray="" stroke-dashoffset="0" font-family="Sans Serif" font-weight="normal" text-anchor="start" style="mix-blend-mode: normal"><tspan x="0" dy="0">Cloud average Score</tspan></text><path d="M269.54116,329.82052l-6.97876,-6.97876l6.97876,-6.97876z" fill="#ffffff" stroke="none" stroke-width="0"/><path d="M283.38892,315.86301l6.97876,6.97876l-6.97876,6.97876z" data-paper-data="{&quot;index&quot;:null}" fill="#ffffff" stroke="none" stroke-width="0"/><path d="M271.96053,329.82052l-6.97876,-6.97876l6.97876,-6.97876z" fill="#060a1f" stroke="none" stroke-width="0"/><path d="M280.96958,315.86301l6.97876,6.97876l-6.97876,6.97876z" data-paper-data="{&quot;index&quot;:null}" fill="#060a1f" stroke="none" stroke-width="0"/><path d="M273.57344,329.82052l-6.97876,-6.97876l6.97876,-6.97876z" fill="#ffffff" stroke="none" stroke-width="0"/><path d="M279.35667,315.86301l6.97876,6.97876l-6.97876,6.97876z" data-paper-data="{&quot;index&quot;:null}" fill="#ffffff" stroke="none" stroke-width="0"/></g></g></svg>