<svg version="1.1" xmlns="http://www.w3.org/2000/svg" xmlns:xlink="http://www.w3.org/1999/xlink" width="38.3331" height="38.875" viewBox="0,0,38.3331,38.875"><defs><radialGradient cx="243.59286" cy="161.94847" r="18.9375" gradientUnits="userSpaceOnUse" id="color-1"><stop offset="0" stop-color="#ffc935" stop-opacity="0"/><stop offset="1" stop-color="#ffc935" stop-opacity="0"/></radialGradient><linearGradient x1="239.74965" y1="161.42099" x2="239.74965" y2="199.29599" gradientUnits="userSpaceOnUse" id="color-2"><stop offset="0" stop-color="#ffb900"/><stop offset="1" stop-color="#e4a400"/></linearGradient><radialGradient cx="243.59286" cy="161.94847" r="18.9375" gradientUnits="userSpaceOnUse" id="color-3"><stop offset="0" stop-color="#ffc935"/><stop offset="1" stop-color="#ffc935" stop-opacity="0"/></radialGradient><linearGradient x1="237.05964" y1="186.14787" x2="243.18789" y2="186.14787" gradientUnits="userSpaceOnUse" id="color-4"><stop offset="0" stop-color="#d29600"/><stop offset="1" stop-color="#d29600" stop-opacity="0"/></linearGradient></defs><g transform="translate(-220.5831,-160.92099)"><g data-paper-data="{&quot;isPaintingLayer&quot;:true}" fill-rule="nonzero" stroke-linejoin="miter" stroke-miterlimit="10" stroke-dasharray="" stroke-dashoffset="0" style="mix-blend-mode: normal"><path d="M245.94986,183.719c-0.89341,-2.34866 -6.13771,-16.29801 -6.13771,-16.29801h-0.125l-12.125,31.875h-6.25l14.625,-37.875h3.5h0.625h3.5l14.625,37.875h-6.25c0,0 -3.30168,-8.67968 -4.01173,-10.5463l-0.06798,-0.2037h-13.54529l1.92242,-4.96983z" fill="url(#color-1)" stroke="#ffffff" stroke-width="1" stroke-linecap="round"/><path d="M245.94986,183.719c-0.89341,-2.34866 -6.13771,-16.29801 -6.13771,-16.29801h-0.125l-12.125,31.875h-6.25l14.625,-37.875h3.5h0.625h3.5l14.625,37.875h-6.25c0,0 -3.30168,-8.67968 -4.01173,-10.5463l-0.06798,-0.2037h-13.54529l1.92242,-4.96983z" fill="url(#color-2)" stroke="#000000" stroke-width="0" stroke-linecap="round"/><path d="M245.94986,183.719c-0.89341,-2.34866 -6.13771,-16.29801 -6.13771,-16.29801h-0.125l-12.125,31.875h-6.25l14.625,-37.875h3.5h0.625h3.5l14.625,37.875h-6.25c0,0 -3.30168,-8.67968 -4.01173,-10.5463l-0.06798,-0.2037h-13.54529l1.92242,-4.96983z" fill="url(#color-3)" stroke="#000000" stroke-width="0" stroke-linecap="round"/><path d="M243.18789,187.91237h-7.64999l1.41304,-3.529h6.23695z" data-paper-data="{&quot;index&quot;:null}" fill="url(#color-4)" stroke="none" stroke-width="0" stroke-linecap="butt"/></g></g></svg>