<svg version="1.1" xmlns="http://www.w3.org/2000/svg" xmlns:xlink="http://www.w3.org/1999/xlink" width="29.29244" height="40.2396" viewBox="0,0,29.29244,40.2396"><defs><radialGradient cx="250.28954" cy="161.79004" r="19.6198" gradientUnits="userSpaceOnUse" id="color-1"><stop offset="0" stop-color="#d045ff" stop-opacity="0"/><stop offset="1" stop-color="#d045ff" stop-opacity="0"/></radialGradient><linearGradient x1="238.39674" y1="160.04444" x2="238.39674" y2="199.28403" gradientUnits="userSpaceOnUse" id="color-2"><stop offset="0" stop-color="#c45ae7"/><stop offset="1" stop-color="#a23fd3"/></linearGradient><radialGradient cx="250.28954" cy="161.79004" r="19.6198" gradientUnits="userSpaceOnUse" id="color-3"><stop offset="0" stop-color="#d045ff"/><stop offset="1" stop-color="#d045ff" stop-opacity="0"/></radialGradient></defs><g transform="translate(-223.75052,-159.54444)"><g data-paper-data="{&quot;isPaintingLayer&quot;:true}" fill-rule="nonzero" stroke-linecap="round" stroke-linejoin="miter" stroke-miterlimit="10" stroke-dasharray="" stroke-dashoffset="0" style="mix-blend-mode: normal"><path d="M247.73679,175.48038l4.79248,4.82422v12.15572l-6.82371,6.82372h-19.86812l-1.58691,-1.58691v-6.9824h2.03125l1.90428,1.90428h13.2031l4.25292,-4.25292v-4.50683h-10.09275l-5.98482,-0.01116l-5.30028,-4.3164v-12.66355l6.82372,-6.82371h19.86812l1.5869,1.58691v6.9824h-2.03124l-1.90428,-1.90428h-13.2031l-4.25292,4.25292v4.50683h10.09276z" fill="url(#color-1)" stroke="#ffffff" stroke-width="1"/><path d="M247.73679,175.48038l4.79248,4.82422v12.15572l-6.82371,6.82372h-19.86812l-1.58691,-1.58691v-6.9824h2.03125l1.90428,1.90428h13.2031l4.25292,-4.25292v-4.50683h-10.09275l-5.98482,-0.01116l-5.30028,-4.3164v-12.66355l6.82372,-6.82371h19.86812l1.5869,1.58691v6.9824h-2.03124l-1.90428,-1.90428h-13.2031l-4.25292,4.25292v4.50683h10.09276z" fill="url(#color-2)" stroke="#000000" stroke-width="0"/><path d="M247.73679,175.48038l4.79248,4.82422v12.15572l-6.82371,6.82372h-19.86812l-1.58691,-1.58691v-6.9824h2.03125l1.90428,1.90428h13.2031l4.25292,-4.25292v-4.50683h-10.09275l-5.98482,-0.01116l-5.30028,-4.3164v-12.66355l6.82372,-6.82371h19.86812l1.5869,1.58691v6.9824h-2.03124l-1.90428,-1.90428h-13.2031l-4.25292,4.25292v4.50683h10.09276z" fill="url(#color-3)" stroke="#000000" stroke-width="0"/></g></g></svg>