<svg version="1.1" xmlns="http://www.w3.org/2000/svg" xmlns:xlink="http://www.w3.org/1999/xlink" width="52.18741" height="48.32869" viewBox="0,0,52.18741,48.32869"><defs><radialGradient cx="240.6061" cy="178.97765" r="25.59373" gradientUnits="userSpaceOnUse" id="color-1"><stop offset="0" stop-color="#ffca16" stop-opacity="0"/><stop offset="1" stop-color="#ffca16" stop-opacity="0"/></radialGradient><linearGradient x1="238.78345" y1="156.33565" x2="238.78345" y2="203.66435" gradientUnits="userSpaceOnUse" id="color-2"><stop offset="0" stop-color="#ffdb34"/><stop offset="1" stop-color="#eca019"/></linearGradient><radialGradient cx="255.42986" cy="163.18648" r="25.59371" gradientUnits="userSpaceOnUse" id="color-3"><stop offset="0" stop-color="#fff733"/><stop offset="1" stop-color="#fff733" stop-opacity="0"/></radialGradient><radialGradient cx="240.6061" cy="178.97765" r="25.59373" gradientUnits="userSpaceOnUse" id="color-4"><stop offset="0" stop-color="#ffca16"/><stop offset="1" stop-color="#ffca16" stop-opacity="0"/></radialGradient></defs><g transform="translate(-212.68977,-155.83567)"><g data-paper-data="{&quot;isPaintingLayer&quot;:true}" fill-rule="nonzero" stroke-linecap="round" stroke-linejoin="miter" stroke-miterlimit="10" stroke-dasharray="" stroke-dashoffset="0" style="mix-blend-mode: normal"><path d="M242.50941,177.34281v13.03359l0.19858,0.0715h10.40264l5.00256,-5.39596v-3.63386v-2.83617v-3.63386l-5.00256,-5.39596h-11.34171v-7.45546h13.82567l8.7826,8.77442v7.53359v3.1907v7.53359l-8.78258,8.77442h-12.91883l-0.16634,0.10924v5.65175h-7.4519v-5.73144l-0.16634,-0.02955h-12.91883l-8.78258,-8.77442v-7.53359v-3.1907v-7.53359l8.7826,-8.77442h12.96603l0.11916,-0.13328v-5.6277h7.4519v22.31631l-7.4519,0.70407v-9.65681l-0.32158,-0.14712h-10.27963l-4.68629,5.39596v3.63386v2.83617v3.63386l4.68629,5.39596h10.35725l0.24396,-0.16075v-12.43262z" data-paper-data="{&quot;index&quot;:null}" fill="url(#color-1)" stroke="#ffffff" stroke-width="1"/><path d="M242.50941,177.85453v12.43262l0.24396,0.16075h10.35725l4.68629,-5.39596v-3.63386v-2.83617v-3.63386l-4.68629,-5.39596h-10.27963l-0.32158,0.14712v9.65681l-7.4519,-0.70407v-22.31631h7.4519v5.6277l0.11916,0.13328h12.96603l8.78258,8.77442v7.53359v3.1907v7.53359l-8.7826,8.77442h-12.91883l-0.16634,0.02955v5.73144h-7.4519v-5.65175l-0.16634,-0.10924h-12.91883l-8.7826,-8.77442v-7.53359v-3.1907v-7.53359l8.78258,-8.77442h13.82567v7.45546h-11.34171l-5.00256,5.39596v3.63386v2.83617v3.63386l5.00256,5.39596h10.40264l0.19858,-0.0715v-13.03359z" data-paper-data="{&quot;index&quot;:null}" fill="url(#color-2)" stroke="#000000" stroke-width="0"/><path d="M242.50941,177.85453v12.43262l0.24396,0.16075h10.35725l4.68629,-5.39596v-3.63386v-2.83617v-3.63386l-4.68629,-5.39596h-10.27963l-0.32158,0.14712v9.65681l-7.4519,-0.70407v-22.31631h7.4519v5.6277l0.11916,0.13328h12.96603l8.78258,8.77442v7.53359v3.1907v7.53359l-8.7826,8.77442h-12.91883l-0.16634,0.02955v5.73144h-7.4519v-5.65175l-0.16634,-0.10924h-12.91883l-8.7826,-8.77442v-7.53359v-3.1907v-7.53359l8.78258,-8.77442h13.82567v7.45546h-11.34171l-5.00256,5.39596v3.63386v2.83617v3.63386l5.00256,5.39596h10.40264l0.19858,-0.0715v-13.03359z" data-paper-data="{&quot;index&quot;:null}" fill="url(#color-3)" stroke="#000000" stroke-width="0"/><path d="M242.50941,177.34281v13.03359l0.19858,0.0715h10.40264l5.00256,-5.39596v-3.63386v-2.83617v-3.63386l-5.00256,-5.39596h-11.34171v-7.45546h13.82567l8.7826,8.77442v7.53359v3.1907v7.53359l-8.78258,8.77442h-12.91883l-0.16634,0.10924v5.65175h-7.4519v-5.73144l-0.16634,-0.02955h-12.91883l-8.78258,-8.77442v-7.53359v-3.1907v-7.53359l8.7826,-8.77442h12.96603l0.11916,-0.13328v-5.6277h7.4519v22.31631l-7.4519,0.70407v-9.65681l-0.32158,-0.14712h-10.27963l-4.68629,5.39596v3.63386v2.83617v3.63386l4.68629,5.39596h10.35725l0.24396,-0.16075v-12.43262z" data-paper-data="{&quot;index&quot;:null}" fill="url(#color-4)" stroke="#000000" stroke-width="0"/></g></g></svg>