<svg version="1.1" xmlns="http://www.w3.org/2000/svg" xmlns:xlink="http://www.w3.org/1999/xlink" width="82.49369" height="82.49369" viewBox="0,0,82.49369,82.49369"><g transform="translate(-198.75316,-138.75316)"><g data-paper-data="{&quot;isPaintingLayer&quot;:true}" fill-rule="nonzero" stroke-linecap="butt" stroke-linejoin="miter" stroke-miterlimit="10" stroke-dasharray="" stroke-dashoffset="0" style="mix-blend-mode: normal"><path d="M240.00003,201.00399l-21.00396,-21.00396l21.00396,-21.00396l21.00396,21.00396z" fill="#060a1f" stroke="#ffffff" stroke-width="1"/><path d="M230.17904,178.15297l2.95611,-3.19844l0.49334,4.68876l0.11665,1.20873c0.41601,3.08301 3.05787,5.45987 6.25487,5.45987c3.48596,0 6.31189,-2.82593 6.31189,-6.31189c0,-3.39126 -2.67448,-6.15787 -6.0293,-6.30568l0.84191,1.74325l-5.82493,-1.51955l3.12351,-5.99377l0.67535,1.85723l0.90156,-0.00984c5.64896,0 10.22836,4.5794 10.22836,10.22836c0,5.64896 -4.5794,10.22836 -10.22836,10.22836c-5.54744,0 -10.06341,-4.41627 -10.22394,-9.92484z" fill="#ffffff" stroke="#ffffff" stroke-width="0"/><path d="M198.75316,180c0,-22.78001 18.46685,-41.24684 41.24684,-41.24684c22.78001,0 41.24684,18.46685 41.24684,41.24684c0,22.78001 -18.46685,41.24684 -41.24684,41.24684c-22.78001,0 -41.24684,-18.46685 -41.24684,-41.24684z" fill="none" stroke="none" stroke-width="0"/></g></g></svg>