<svg version="1.1" xmlns="http://www.w3.org/2000/svg" xmlns:xlink="http://www.w3.org/1999/xlink" width="581.08108" height="370.38886" viewBox="0,0,581.08108,370.38886"><g transform="translate(50.54054,5.19443)"><g data-paper-data="{&quot;isPaintingLayer&quot;:true}" fill="#060a1f" fill-rule="nonzero" stroke="none" stroke-width="0" stroke-linecap="butt" stroke-linejoin="miter" stroke-miterlimit="10" stroke-dasharray="" stroke-dashoffset="0" style="mix-blend-mode: normal"><path d="M-11.15473,81.41065v-86.60508h86.60508v86.60508z"/><path d="M-11.15473,365.19443v-86.60508h86.60508v86.60508z"/><path d="M196.69746,81.41065v-86.60508h86.60508v86.60508z"/><path d="M196.69746,365.19443v-86.60508h86.60508v86.60508z"/><path d="M92.77136,81.41065v-86.60508h86.60508v86.60508z"/><path d="M92.77136,365.19443v-86.60508h86.60508v86.60508z"/><path d="M300.62355,81.41065v-86.60508h86.60508v86.60508z"/><path d="M300.62355,365.19443v-86.60508h86.60508v86.60508z"/><path d="M196.69746,81.41065v-86.60508h86.60508v86.60508z"/><path d="M196.69746,365.19443v-86.60508h86.60508v86.60508z"/><path d="M404.54965,81.41065v-86.60508h86.60508v86.60508z"/><path d="M404.54965,365.19443v-86.60508h86.60508v86.60508z"/><path d="M-50.54054,166.57481v-72.16039h581.08108v72.16039z"/><path d="M-50.54054,265.58558v-72.16039h581.08108v72.16039z"/></g></g></svg>