<svg version="1.1" xmlns="http://www.w3.org/2000/svg" xmlns:xlink="http://www.w3.org/1999/xlink" width="523.54201" height="581.08108" viewBox="0,0,523.54201,581.08108"><g transform="translate(21.77101,110.54054)"><g data-paper-data="{&quot;isPaintingLayer&quot;:true}" fill="#060a1f" fill-rule="nonzero" stroke="none" stroke-width="0" stroke-linecap="butt" stroke-linejoin="miter" stroke-miterlimit="10" stroke-dasharray="" stroke-dashoffset="0" style="mix-blend-mode: normal"><path d="M100.64466,431.15473h-122.41566l0,-86.60508h122.41566z"/><path d="M501.77101,431.15473h-122.41566v-86.60508l122.41566,0z"/><path d="M100.64466,223.30254h-122.41566v-86.60508h122.41566z"/><path d="M501.77101,223.30254h-122.41566v-86.60508h122.41566z"/><path d="M100.64466,327.22864l-122.41566,0v-86.60508l122.41566,0z"/><path d="M501.77101,327.22864h-122.41566v-86.60508l122.41566,0z"/><path d="M100.64466,119.37645l-122.41566,0v-86.60508l122.41566,0z"/><path d="M501.77101,119.37645l-122.41566,0v-86.60508l122.41566,0z"/><path d="M100.64466,223.30254h-122.41566v-86.60508h122.41566z"/><path d="M501.77101,223.30254h-122.41566v-86.60508h122.41566z"/><path d="M100.64466,15.45035l-122.41566,0v-86.60508l122.41566,0z"/><path d="M501.77101,15.45035l-122.41566,0l0,-86.60508l122.41566,0z"/><path d="M221.02359,470.54054h-101.9982l0,-581.08108h101.9982z"/><path d="M360.97461,470.54054h-101.9982l0,-581.08108h101.9982z"/><path d="M245.95405,470.54054h-11.90811v-581.08108h11.90811z"/></g></g></svg>