<svg version="1.1" xmlns="http://www.w3.org/2000/svg" xmlns:xlink="http://www.w3.org/1999/xlink" width="54.3521" height="48.60735" viewBox="0,0,54.3521,48.60735"><g transform="translate(-234.34251,-174.34251)"><g data-paper-data="{&quot;isPaintingLayer&quot;:true}" fill-rule="nonzero" stroke-linecap="butt" stroke-linejoin="miter" stroke-miterlimit="10" stroke-dasharray="" stroke-dashoffset="0" style="mix-blend-mode: normal"><path d="M236.29831,180.00001c0,-2.04439 1.65731,-3.7017 3.7017,-3.7017c2.04439,0 3.7017,1.65731 3.7017,3.7017c0,2.04439 -1.65731,3.7017 -3.7017,3.7017c-2.04439,0 -3.7017,-1.65731 -3.7017,-3.7017z" fill="#ffffff" stroke="none" stroke-width="0"/><path d="M234.84252,180.00001c0,-2.8484 2.30909,-5.15749 5.15749,-5.15749c2.8484,0 5.15749,2.30909 5.15749,5.15749c0,2.8484 -2.30909,5.15749 -5.15749,5.15749c-2.8484,0 -5.15749,-2.30909 -5.15749,-5.15749z" fill="none" stroke="#ffffff" stroke-width="1"/><text transform="translate(246.48824,199.52003) scale(0.38727,0.38727)" font-size="40" xml:space="preserve" fill="#ffffff" fill-rule="nonzero" stroke="none" stroke-width="1" stroke-linecap="butt" stroke-linejoin="miter" stroke-miterlimit="10" stroke-dasharray="" stroke-dashoffset="0" font-family="Sans Serif" font-weight="normal" text-anchor="start" style="mix-blend-mode: normal"><tspan x="0" dy="0">Tap &amp;</tspan><tspan x="0" dy="48px">Hold</tspan></text></g></g></svg>