<svg version="1.1" xmlns="http://www.w3.org/2000/svg" xmlns:xlink="http://www.w3.org/1999/xlink" width="57.00037" height="34.60613" viewBox="0,0,57.00037,34.60613"><g transform="translate(-234.34251,-174.34251)"><g data-paper-data="{&quot;isPaintingLayer&quot;:true}" fill-rule="nonzero" stroke-linecap="butt" stroke-linejoin="miter" stroke-miterlimit="10" stroke-dasharray="" stroke-dashoffset="0" style="mix-blend-mode: normal"><path d="M236.2983,180c0,-2.04439 1.65731,-3.7017 3.7017,-3.7017c2.04439,0 3.7017,1.65731 3.7017,3.7017c0,2.04439 -1.65731,3.7017 -3.7017,3.7017c-2.04439,0 -3.7017,-1.65731 -3.7017,-3.7017z" fill="#ffffff" stroke="none" stroke-width="0"/><path d="M234.84251,180c0,-2.8484 2.30909,-5.15749 5.15749,-5.15749c2.8484,0 5.15749,2.30909 5.15749,5.15749c0,2.8484 -2.30909,5.15749 -5.15749,5.15749c-2.8484,0 -5.15749,-2.30909 -5.15749,-5.15749z" fill="none" stroke="#ffffff" stroke-width="1"/><text transform="translate(245.60851,202.69864) scale(0.5,0.5)" font-size="40" xml:space="preserve" fill="#ffffff" fill-rule="nonzero" stroke="none" stroke-width="1" stroke-linecap="butt" stroke-linejoin="miter" stroke-miterlimit="10" stroke-dasharray="" stroke-dashoffset="0" font-family="Sans Serif" font-weight="normal" text-anchor="start" style="mix-blend-mode: normal"><tspan x="0" dy="0">Hold</tspan></text></g></g></svg>