<svg version="1.1" xmlns="http://www.w3.org/2000/svg" xmlns:xlink="http://www.w3.org/1999/xlink" width="26.42964" height="49.6218" viewBox="0,0,26.42964,49.6218"><g transform="translate(-226.78519,-155.1891)"><g data-paper-data="{&quot;isPaintingLayer&quot;:true}" fill-rule="nonzero" stroke-linecap="butt" stroke-linejoin="miter" stroke-miterlimit="10" stroke-dasharray="" stroke-dashoffset="0" style="mix-blend-mode: normal"><path d="M234.13217,180c0,-3.24071 2.62713,-5.86784 5.86784,-5.86784c3.24071,0 5.86784,2.62713 5.86784,5.86784c0,3.24071 -2.62713,5.86784 -5.86784,5.86784c-3.24071,0 -5.86784,-2.62713 -5.86784,-5.86784z" fill="#ffffff" stroke="none" stroke-width="0"/><path d="M230.15885,180c0,-5.43512 4.40604,-9.84115 9.84115,-9.84115c5.43512,0 9.84115,4.40604 9.84115,9.84115c0,5.43512 -4.40604,9.84115 -9.84115,9.84115c-5.43512,0 -9.84115,-4.40604 -9.84115,-9.84115z" fill="none" stroke="#ffffff" stroke-width="2"/><path d="M240,155.1891l5.81371,10.75978h-11.62741z" fill="#ffffff" stroke="none" stroke-width="0"/><path d="M234.18629,194.05112h11.62741l-5.81371,10.75978z" data-paper-data="{&quot;index&quot;:null}" fill="#ffffff" stroke="none" stroke-width="0"/><path d="M226.78519,162.17442l6.76946,4.15675l-6.53631,3.78364z" fill="#ffffff" stroke="none" stroke-width="0"/><path d="M227.01834,189.88519l6.53631,3.78364l-6.76946,4.15675z" data-paper-data="{&quot;index&quot;:null}" fill="#ffffff" stroke="none" stroke-width="0"/><path d="M252.98167,170.11481l-6.53631,-3.78364l6.76946,-4.15675z" data-paper-data="{&quot;index&quot;:null}" fill="#ffffff" stroke="none" stroke-width="0"/><path d="M253.21482,197.82558l-6.76946,-4.15675l6.53631,-3.78364z" data-paper-data="{&quot;index&quot;:null}" fill="#ffffff" stroke="none" stroke-width="0"/></g></g></svg>