<svg version="1.1" xmlns="http://www.w3.org/2000/svg" xmlns:xlink="http://www.w3.org/1999/xlink" width="83.71625" height="101.57771" viewBox="0,0,83.71625,101.57771"><g transform="translate(-198.41787,-138.41787)"><g data-paper-data="{&quot;isPaintingLayer&quot;:true}" fill-rule="nonzero" stroke="#ffea5f" stroke-linecap="butt" stroke-linejoin="miter" stroke-miterlimit="10" stroke-dasharray="" stroke-dashoffset="0" style="mix-blend-mode: normal"><path d="M211.597,208.403v-56.806h56.806v56.806z" fill="none" stroke-width="2"/><path d="M240,220.16791l-40.16791,-40.16791l40.16791,-40.16791l40.16791,40.16791z" fill="none" stroke-width="2"/><path d="M232.75229,180c0,-4.0028 3.24491,-7.24771 7.24771,-7.24771c4.0028,0 7.24771,3.24491 7.24771,7.24771c0,4.0028 -3.24491,7.24771 -7.24771,7.24771c-4.0028,0 -7.24771,-3.24491 -7.24771,-7.24771z" fill="#fffed4" stroke-width="2"/><path d="M238.57798,180c0,-0.78536 0.63666,-1.42202 1.42202,-1.42202c0.78536,0 1.42202,0.63666 1.42202,1.42202c0,0.78536 -0.63666,1.42202 -1.42202,1.42202c-0.78536,0 -1.42202,-0.63666 -1.42202,-1.42202z" fill="none" stroke-width="2"/><path d="M240.14412,168.25758v0v0v0z" fill="#fffed4" stroke-width="2"/><path d="M275.47363,227.06088l-5.24628,-5.24628l5.24628,-5.24628l5.24628,5.24628z" fill="none" stroke-width="2"/><path d="M263.53584,238.93492l-3.53553,-3.53553l3.53553,-3.53553l3.53553,3.53553z" fill="none" stroke-width="1.5"/></g></g></svg>