<svg version="1.1" xmlns="http://www.w3.org/2000/svg" xmlns:xlink="http://www.w3.org/1999/xlink" width="460.81986" height="336.19584" viewBox="0,0,460.81986,336.19584"><g transform="translate(-9.5901,-11.90208)"><g data-paper-data="{&quot;isPaintingLayer&quot;:true}" fill-rule="nonzero" stroke="none" stroke-width="0" stroke-linejoin="miter" stroke-miterlimit="10" stroke-dasharray="" stroke-dashoffset="0" style="mix-blend-mode: normal"><path d="M65.30299,263.88424l33.60827,-63.40157l34.40554,-76.50111l33.20217,-34.67781l35.66159,-21.15101l34.67782,112.88736l33.93999,-53.12346l33.44811,13.77275l39.59666,-14.01869l29.51304,-12.54304l34.29557,60.50172v90.08771" fill="#222727" stroke-linecap="round"/><text transform="translate(272.99718,325.98737) scale(0.79829,0.79829)" font-size="40" xml:space="preserve" fill-opacity="0" fill="#000000" fill-rule="nonzero" stroke="none" stroke-width="0" stroke-linecap="butt" stroke-linejoin="miter" stroke-miterlimit="10" stroke-dasharray="" stroke-dashoffset="0" font-family="Sans Serif" font-weight="normal" text-anchor="start" style="mix-blend-mode: normal"><tspan x="0" dy="0">Continue</tspan></text><path d="M46.50004,284.30933v-264.22171h387v264.22171z" fill="none" stroke-linecap="butt"/><path d="M36.9502,348.09792v-336.19584h406.09959v336.19584z" fill="none" stroke-linecap="butt"/><path d="M9.59011,348.09792v-336.19584h16.37541v336.19584z" fill="none" stroke-linecap="butt"/><path d="M454.03456,348.09792v-336.19584h16.37541v336.19584z" fill="none" stroke-linecap="butt"/><path d="M254.50004,339.49937v-47.17829h179v47.17829z" fill="none" stroke-linecap="butt"/><path d="M413.21133,264.5595h-348.89433v-207.08283" fill="none" stroke-linecap="round"/><g fill="none" stroke-linecap="round"><path d="M98.8697,264.99429v5.23378"/><path d="M132.71478,270.22807v-5.23378"/></g><g fill="none" stroke-linecap="round"><path d="M235.99461,270.22807v-5.23378"/><path d="M269.83968,270.22807v-5.23378"/></g><g fill="none" stroke-linecap="round"><path d="M167.60661,270.22807v-5.23378"/><path d="M201.45169,264.99429v5.23378"/></g><g fill="none" stroke-linecap="round"><path d="M304.73152,270.22807v-5.23378"/><path d="M338.5766,270.22807v-5.23378"/></g><g fill="none" stroke-linecap="round"><path d="M374.16628,264.99429v5.23378"/><path d="M408.01136,270.22807v-5.23378"/></g></g></g></svg>