<svg version="1.1" xmlns="http://www.w3.org/2000/svg" xmlns:xlink="http://www.w3.org/1999/xlink" width="30.95038" height="40.38304" viewBox="0,0,30.95038,40.38304"><defs><linearGradient x1="240.00002" y1="160.30847" x2="240.00002" y2="199.69152" gradientUnits="userSpaceOnUse" id="color-1"><stop offset="0" stop-color="#0ec54b" stop-opacity="0"/><stop offset="1" stop-color="#0ec54b"/></linearGradient><linearGradient x1="240.00002" y1="160.30847" x2="240.00002" y2="199.69152" gradientUnits="userSpaceOnUse" id="color-2"><stop offset="0" stop-color="#00e460"/><stop offset="1" stop-color="#0ec54b"/></linearGradient><radialGradient cx="245.68447" cy="158.97863" r="16.56863" gradientUnits="userSpaceOnUse" id="color-3"><stop offset="0" stop-color="#02f567"/><stop offset="1" stop-color="#02f567" stop-opacity="0"/></radialGradient><linearGradient x1="235.86399" y1="180.71309" x2="241.99224" y2="180.71309" gradientUnits="userSpaceOnUse" id="color-4"><stop offset="0" stop-color="#04b44a"/><stop offset="1" stop-color="#04b44a" stop-opacity="0"/></linearGradient></defs><g transform="translate(-224.31809,-159.80847)"><g data-paper-data="{&quot;isPaintingLayer&quot;:true}" fill-rule="nonzero" stroke-linejoin="miter" stroke-miterlimit="10" stroke-dasharray="" stroke-dashoffset="0" style="mix-blend-mode: normal"><path d="M233.25126,177.81607v16.84356h11.00057l3.80673,-3.62297l-0.18375,-5.23318l-3.26979,-2.68748h-9.36884v-4.82684h8.61563l3.75716,-3.75716v-2.68368l-6.37374,-6.04308l-7.98396,-0.12939v13.94786l-6.15415,-0.43063l-0.01832,-18.8846h17.57812l9.66125,9.66125v5.23318l-4.89772,4.89772l5.34584,5.69523l-0.11646,10.56257l-3.21662,3.33309h-26.19946l1.87858,-2.92329l-0.01463,-18.7203z" fill="url(#color-1)" stroke="#ffffff" stroke-width="1" stroke-linecap="round"/><path d="M233.25126,177.81607v16.84356h11.00057l3.80673,-3.62297l-0.18375,-5.23318l-3.26979,-2.68748h-9.36884v-4.82684h8.61563l3.75716,-3.75716v-2.68368l-6.37374,-6.04308l-7.98396,-0.12939v13.94786l-6.15415,-0.43063l-0.01832,-18.8846h17.57812l9.66125,9.66125v5.23318l-4.89772,4.89772l5.34584,5.69523l-0.11646,10.56257l-3.21662,3.33309h-26.19946l1.87858,-2.92329l-0.01463,-18.7203z" fill="url(#color-2)" stroke="#000000" stroke-width="0" stroke-linecap="round"/><path d="M227.3917,160.53035l17.09277,-0.12035l9.82898,9.86164l-0.05895,4.75493l-2.83624,2.87955l-5.56137,-1.583l1.67038,-1.80959l0.17055,-2.49699l-6.2833,-6.11706l-7.88624,-0.07388l-0.35867,6.30962l-5.90409,-4.4136z" fill="url(#color-3)" stroke="none" stroke-width="0" stroke-linecap="butt"/><path d="M241.99224,182.47759h-6.12825v-3.529h6.12825z" data-paper-data="{&quot;index&quot;:null}" fill="url(#color-4)" stroke="none" stroke-width="0" stroke-linecap="butt"/></g></g></svg>