<svg version="1.1" xmlns="http://www.w3.org/2000/svg" xmlns:xlink="http://www.w3.org/1999/xlink" width="268.85312" height="114.85523" viewBox="0,0,268.85312,114.85523"><g transform="translate(-88.70115,-117.51314)"><g data-paper-data="{&quot;isPaintingLayer&quot;:true}" fill-rule="nonzero" stroke="#000000" stroke-width="0.5" stroke-linejoin="miter" stroke-miterlimit="10" stroke-dasharray="" stroke-dashoffset="0" style="mix-blend-mode: normal"><path d="M134.13358,168.45252v-50.68938h21.89781l19.26196,19.26197v37.51014h-41.15977z" fill="#7a37dd" stroke-linecap="round"/><path d="M270.72682,168.45252v-50.68938h21.89781l19.26196,19.26197v37.51014h-41.15978z" fill="#7a37dd" stroke-linecap="round"/><path d="M316.1445,226.38324v-47.79284h21.89781l19.26197,18.16128v35.3667h-41.15978z" fill="none" stroke-linecap="round"/><path d="M220.57026,126.0013v28.3638h-29.00304v7.73559h29.2597v2.57853v9.37646h-40.29626v-36.33381l12.8332,-11.72058h21.81644z" fill="#7a37dd" stroke-linecap="round"/><path d="M225.54087,173.82128v-47.58557h31.24409l8.90764,8.90765v38.4435h-13.51234v-19.67245h-14.18349v20.14128z" fill="#7a37dd" stroke-linecap="round"/><path d="M89.22672,178.57675h13.16603v42.88285h26.88064v10.65874h-40.32095z" fill="#7a37dd" stroke-linecap="round"/><path d="M134.17234,232.11834v-53.54159h40.75619v53.54159z" fill="#7a37dd" stroke-linecap="butt"/><path d="M180.33507,232.11834v-53.54159h40.75619v53.54159z" fill="none" stroke-linecap="butt"/><path d="M225.34123,232.11834v-53.54159h40.75619v53.54159z" fill="none" stroke-linecap="butt"/><path d="M266.09742,178.57675v53.54159h-40.75619v-53.54159z" data-paper-data="{&quot;index&quot;:null}" fill="none" stroke-linecap="butt"/><path d="M270.70062,232.11834v-53.54159h40.75618v53.54159z" fill="none" stroke-linecap="butt"/><path d="M191.16114,220.80795v-31.12405h29.78056v31.12405z" fill="none" stroke-linecap="butt"/></g></g></svg>