<svg version="1.1" xmlns="http://www.w3.org/2000/svg" xmlns:xlink="http://www.w3.org/1999/xlink" width="39.85795" height="45.43457" viewBox="0,0,39.85795,45.43457"><defs><radialGradient cx="224.79184" cy="158.48654" r="20.78548" gradientUnits="userSpaceOnUse" id="color-1"><stop offset="0" stop-color="#8e38ff" stop-opacity="0"/><stop offset="1" stop-color="#8e38ff" stop-opacity="0"/></radialGradient><linearGradient x1="239.74965" y1="202.57578" x2="239.74965" y2="158.1412" gradientUnits="userSpaceOnUse" id="color-2"><stop offset="0" stop-color="#9000e3"/><stop offset="1" stop-color="#3300ff"/></linearGradient><radialGradient cx="254.70747" cy="158.48654" r="20.78548" gradientUnits="userSpaceOnUse" id="color-3"><stop offset="0" stop-color="#9a4cff"/><stop offset="1" stop-color="#9a4cff" stop-opacity="0"/></radialGradient><radialGradient cx="224.79184" cy="158.48654" r="20.78548" gradientUnits="userSpaceOnUse" id="color-4"><stop offset="0" stop-color="#8e38ff"/><stop offset="1" stop-color="#8e38ff" stop-opacity="0"/></radialGradient></defs><g transform="translate(-219.82067,-157.6412)"><g data-paper-data="{&quot;isPaintingLayer&quot;:true}" fill-rule="nonzero" stroke-linecap="butt" stroke-linejoin="miter" stroke-miterlimit="10" stroke-dasharray="" stroke-dashoffset="0" style="mix-blend-mode: normal"><path d="M239.68447,194.21979l12.77568,-36.07859h6.51821l-15.25261,44.43457h-7.95221l-15.2526,-44.43457h6.51821c0,0 3.44337,10.18291 4.18389,12.37281z" data-paper-data="{&quot;index&quot;:null}" fill="url(#color-1)" stroke="#ffffff" stroke-width="1"/><path d="M248.27628,170.51402c0.74053,-2.1899 4.18389,-12.37281 4.18389,-12.37281h6.51821l-15.2526,44.43457h-7.95221l-15.2526,-44.43457h6.51821l12.77568,36.07859z" data-paper-data="{&quot;index&quot;:null}" fill="url(#color-2)" stroke="#000000" stroke-width="0"/><path d="M248.27628,170.51402c0.74053,-2.1899 4.18389,-12.37281 4.18389,-12.37281h6.51821l-15.2526,44.43457h-7.95221l-15.2526,-44.43457h6.51821l12.77568,36.07859z" data-paper-data="{&quot;index&quot;:null}" fill="url(#color-3)" stroke="#000000" stroke-width="0"/><path d="M239.68447,194.21979l12.77568,-36.07859h6.51821l-15.25261,44.43457h-7.95221l-15.2526,-44.43457h6.51821c0,0 3.44337,10.18291 4.18389,12.37281z" data-paper-data="{&quot;index&quot;:null}" fill="url(#color-4)" stroke="#000000" stroke-width="0"/></g></g></svg>