<svg version="1.1" xmlns="http://www.w3.org/2000/svg" xmlns:xlink="http://www.w3.org/1999/xlink" width="359.58307" height="170.58526" viewBox="0,0,359.58307,170.58526"><g transform="translate(-68.45288,-96.85985)"><g data-paper-data="{&quot;isPaintingLayer&quot;:true}" fill="#7a37dd" fill-rule="nonzero" stroke="#000000" stroke-width="0" stroke-linecap="round" stroke-linejoin="miter" stroke-miterlimit="10" stroke-dasharray="" stroke-dashoffset="0" style="mix-blend-mode: normal"><path d="M161.0545,136.345v18.07718v13.84528l-6.10854,6.10854h40.39313l4.78032,-4.78031v-33.00622l-39.06491,-17.02969v20.0999l-13.75966,0.05646v-42.85629l62.50511,27.24805v52.811l-7.64865,7.64865h-64.63031l9.77385,-9.77385v-22.15289v-15.07872z"/><path d="M428.03595,213.2834v41.11122l-12.52179,12.80173h-98.47632l8.6695,-16.35874v-37.07782v-93.36192l102.32861,45.60571v52.41951l-21.39513,-4.03951v-25.80797l-59.9584,-28.46049v58.26301v23.13861l-5.07981,10.20875h57.70119l7.33702,-7.98898v-33.28197z"/><path d="M219.25323,177.52418v-33.6403v-14.0168v-6.29326h44.55428l9.95546,9.86897v26.96867h-38.5233v-9.43989h22.79655v-10.52039h-6.92553h-17.31384l-2.45279,2.43148v26.17422l3.67919,3.64722h38.884v7.22294l-4.47274,4.43388h-55.99252z"/><path d="M291.83929,138.37804v6.41681l16.97,16.96999v-19.9213l-7.00934,-7.00934l-9.96065,-0.86079v6.67968l-9.60418,-3.09958v-5.73704l-8.72627,-8.72627h32.14942l14.2376,14.2376v42.11869l-4.02268,5.38897l-6.6938,0.00464v-11.07629l-17.09273,-17.09273v27.88575h-14.67396l4.82241,-4.82242v-44.29988z"/><path d="M79.88596,263.67479l-4.97491,-4.28942v-55.6234l-6.45817,-7.43018l19.77909,-21.49109v73.53271l4.52911,4.52911h41.47248l-14.25339,14.25339h-19.49295l-4.35155,-3.35243z"/><path d="M157.85861,219.72099v12.35032l-16.503,16.503h-42.72561v-38.59793l18.68521,-18.68522h40.54339v29.44073l-9.51415,-1.5109v-16.4732h-27.66069l-10.44596,11.21113v23.15875h28.88066l9.22599,-9.9018v-9.65332z"/><path d="M208.41989,191.22348l11.41026,10.72831h-17.11296l-4.85591,1.79406l-2.49254,-2.49254h-15.87868l-3.45415,3.45415l0.35162,24.349l28.40117,28.40117h8.36254l1.49265,-1.49265h10.18065l-11.03928,11.03928h-14.54378l-35.97673,-35.97673v-31.23087l8.57318,-8.57318h26.94428z"/><path d="M239.14568,191.02692v18.81955h5.6025l15.35396,-15.35396l3.60408,-3.60408h19.74918l-5.68448,5.68448h-8.08721l-26.82821,27.4293l0.10529,10.96487l23.73497,24.14599l14.02292,0.10276l-8.10483,8.10483h-10.78294l-22.91966,-24.1444v17.2365l-7.03235,7.03235h-12.42381l9.37646,-9.37646v-54.3835l-3.75059,-3.75059l-8.90765,-8.90764h18.51852z"/><path d="M295.75889,191.83177h21.38815l-8.06731,6.43652l-4.73948,0.32616c0,0 -2.06705,1.94019 -3.90791,3.66807c-4.43318,4.16109 -22.66377,21.27282 -22.66377,21.27282l26.11302,-0.32616l12.04746,11.39514h-38.1197l25.07339,25.73629h14.26941l-8.02078,6.75719h-11.5786l-30.82192,-30.49577v-16.30789l27.0711,-27.0711z"/></g></g></svg>